<svg xmlns="http://www.w3.org/2000/svg" viewBox="0 0 100 100" width="100" height="100">
  <!-- ribbon tails -->
  <path d="M35 72 L28 95 L38 85 L48 95 L42 72" fill="#a0a0a0" stroke="#808080" stroke-width="1.5" stroke-linejoin="round"/>
  <path d="M58 72 L52 95 L62 85 L72 95 L65 72" fill="#a0a0a0" stroke="#808080" stroke-width="1.5" stroke-linejoin="round"/>
  <!-- outer starburst -->
  <polygon points="50,8 55,22 62,10 63,25 72,15 69,29 80,22 74,35 86,32 77,42 90,42 78,50 90,58 77,58 86,68 74,65 80,78 69,71 72,85 63,75 62,90 55,78 50,92 45,78 38,90 37,75 28,85 31,71 20,78 26,65 14,68 23,58 10,58 22,50 10,42 23,42 14,32 26,35 20,22 31,29 28,15 37,25 38,10 45,22" fill="#c0c0c0" stroke="#a0a0a0" stroke-width="1.5" stroke-linejoin="round"/>
  <!-- inner circle -->
  <circle cx="50" cy="50" r="24" fill="#d8d8d8" stroke="#a0a0a0" stroke-width="2"/>
  <!-- inner ring -->
  <circle cx="50" cy="50" r="19" fill="none" stroke="#a0a0a0" stroke-width="1.5" opacity="0.6"/>
  <!-- star -->
  <polygon points="50,34 53,44 64,44 56,50 58,61 50,55 42,61 44,50 36,44 47,44" fill="#a0a0a0" stroke="#808080" stroke-width="1"/>
</svg>
