<svg xmlns="http://www.w3.org/2000/svg" viewBox="0 0 80 100" width="80" height="100">
  <!-- document with folded corner -->
  <path d="M5 5 L55 5 L75 25 L75 95 L5 95 Z" fill="#f5f5f5" stroke="#EE0000" stroke-width="2.5" stroke-linejoin="round"/>
  <!-- fold -->
  <path d="M55 5 L55 25 L75 25" fill="#e0e0e0" stroke="#EE0000" stroke-width="2" stroke-linejoin="round"/>
  <!-- text lines -->
  <line x1="16" y1="35" x2="50" y2="35" stroke="#EE0000" stroke-width="2" stroke-linecap="round" opacity="0.4"/>
  <line x1="16" y1="44" x2="42" y2="44" stroke="#EE0000" stroke-width="2" stroke-linecap="round" opacity="0.4"/>
  <!-- mini gold medallion starburst -->
  <polygon points="40,67 42,60 45,65 49,59 50,66 55,62 54,69 60,67 57,73 62,73 58,77 62,80 57,80 60,85 54,83 55,88 50,85 49,90 45,86 42,91 39,86 35,90 34,85 29,88 30,83 24,85 27,80 22,80 26,77 22,73 27,73 24,67 30,69 29,62 34,66 35,59 39,65" fill="#f0c040" stroke="#d4a017" stroke-width="1" stroke-linejoin="round"/>
  <!-- medallion inner circle -->
  <circle cx="42" cy="75" r="10" fill="#f7d96e" stroke="#d4a017" stroke-width="1.2"/>
  <!-- medallion inner ring -->
  <circle cx="42" cy="75" r="7.5" fill="none" stroke="#d4a017" stroke-width="1" opacity="0.6"/>
  <!-- star -->
  <polygon points="42,69 43.5,73 48,73 44.5,76 45.5,80.5 42,78 38.5,80.5 39.5,76 36,73 40.5,73" fill="#d4a017" stroke="#b8860b" stroke-width="0.5"/>
</svg>
