<svg xmlns="http://www.w3.org/2000/svg" viewBox="0 0 190.4 151.3"><path d="M127 90.2c12.5 0 30.6-2.6 30.6-17.5a12.678 12.678 0 0 0-.3-3.4L149.8 37c-1.7-7.1-3.2-10.3-15.7-16.6-9.7-5-30.8-13.1-37.1-13.1-5.8 0-7.5 7.5-14.4 7.5-6.7 0-11.6-5.6-17.9-5.6-6 0-9.9 4.1-12.9 12.5 0 0-8.4 23.7-9.5 27.2a4.216 4.216 0 0 0-.3 1.9c0 9.2 36.3 39.4 85 39.4Zm32.5-11.4c1.7 8.2 1.7 9.1 1.7 10.1 0 14-15.7 21.8-36.4 21.8-46.8 0-87.7-27.4-87.7-45.5a17.535 17.535 0 0 1 1.5-7.3C21.8 58.8 0 61.8 0 81c0 31.5 74.6 70.3 133.7 70.3 45.3 0 56.7-20.5 56.7-36.6-.1-12.8-11-27.3-30.9-35.9Z" fill="#e00"/><path d="M159.5 78.8c1.7 8.2 1.7 9.1 1.7 10.1 0 14-15.7 21.8-36.4 21.8-46.8 0-87.7-27.4-87.7-45.5a17.535 17.535 0 0 1 1.5-7.3l3.7-9.1a4.877 4.877 0 0 0-.3 2c0 9.2 36.3 39.4 85 39.4 12.5 0 30.6-2.6 30.6-17.5a12.678 12.678 0 0 0-.3-3.4Z"/></svg>